<?xml version="1.0" encoding="utf-8"?>
<!-- Generator: Adobe Illustrator 29.7.1, SVG Export Plug-In . SVG Version: 9.03 Build 0)  -->
<svg version="1.1" id="图层_1" xmlns="http://www.w3.org/2000/svg" xmlns:xlink="http://www.w3.org/1999/xlink" x="0px" y="0px"
	 viewBox="0 0 512 512" style="enable-background:new 0 0 512 512;" xml:space="preserve">
<path style="fill:#FFFFFF;" d="M512,112v288c0,61.86-50.14,112-112,112H112C55.22,512,8.32,469.76,1,414.99
	c-0.66-4.9-1-9.91-1-14.99V112c0-5.08,0.34-10.09,1-14.99C7.66,47.14,47.14,7.66,97.01,1c4.9-0.66,9.91-1,14.99-1h288
	c5.08,0,10.09,0.34,14.99,1C469.76,8.32,512,55.22,512,112z"/>
<g>
	<g>
		<path style="fill:#0000FF;" d="M89.948,223.321v9.221h0.263c1.844-3.775,4.742-6.52,8.694-8.233
			c3.952-1.713,8.299-2.569,13.041-2.569c5.269,0,9.857,0.967,13.765,2.898c3.906,1.933,7.157,4.544,9.748,7.838
			c2.589,3.293,4.544,7.093,5.862,11.395c1.317,4.304,1.976,8.871,1.976,13.7c0,4.831-0.638,9.398-1.91,13.7
			c-1.274,4.304-3.207,8.058-5.796,11.263c-2.591,3.207-5.841,5.73-9.748,7.574c-3.909,1.844-8.453,2.766-13.634,2.766
			c-1.669,0-3.536-0.177-5.598-0.527c-2.064-0.352-4.106-0.922-6.125-1.713c-2.021-0.79-3.931-1.865-5.73-3.227
			c-1.801-1.361-3.316-3.05-4.544-5.072h-0.263v35.04H78.751v-94.053H89.948z M130.191,247.493c-0.836-3.03-2.108-5.73-3.82-8.101
			c-1.713-2.371-3.909-4.258-6.587-5.664c-2.68-1.404-5.819-2.108-9.418-2.108c-3.777,0-6.982,0.747-9.616,2.239
			c-2.634,1.494-4.787,3.448-6.455,5.862c-1.669,2.416-2.877,5.16-3.623,8.233c-0.747,3.075-1.12,6.191-1.12,9.353
			c0,3.338,0.395,6.566,1.186,9.682c0.79,3.118,2.042,5.862,3.754,8.233c1.713,2.371,3.929,4.281,6.652,5.73
			c2.721,1.449,6.014,2.173,9.88,2.173c3.863,0,7.091-0.745,9.682-2.239c2.589-1.492,4.676-3.468,6.257-5.928
			c1.581-2.458,2.721-5.269,3.425-8.431c0.702-3.161,1.054-6.409,1.054-9.748C131.442,253.618,131.024,250.523,130.191,247.493z"/>
		<path style="fill:#0000FF;" d="M204.681,287.077c-5.094,3.865-11.506,5.796-19.232,5.796c-5.446,0-10.166-0.879-14.161-2.635
			c-3.997-1.756-7.356-4.215-10.077-7.377c-2.723-3.162-4.765-6.936-6.125-11.329c-1.362-4.39-2.13-9.176-2.305-14.358
			c0-5.181,0.79-9.923,2.371-14.226c1.581-4.302,3.797-8.035,6.652-11.197c2.853-3.161,6.234-5.619,10.143-7.377
			c3.907-1.756,8.188-2.635,12.844-2.635c6.059,0,11.086,1.252,15.083,3.754c3.995,2.503,7.2,5.687,9.616,9.55
			c2.414,3.866,4.084,8.081,5.005,12.646c0.922,4.567,1.295,8.914,1.12,13.041h-50.978c-0.089,2.987,0.263,5.819,1.054,8.496
			c0.79,2.68,2.062,5.051,3.82,7.113c1.756,2.064,3.995,3.711,6.718,4.94c2.721,1.231,5.928,1.844,9.616,1.844
			c4.742,0,8.628-1.097,11.658-3.293c3.03-2.194,5.026-5.533,5.994-10.011h11.065C213.066,277.461,209.773,283.214,204.681,287.077z
			 M201.981,243.344c-1.011-2.371-2.371-4.413-4.084-6.125c-1.712-1.713-3.733-3.073-6.059-4.083
			c-2.328-1.009-4.896-1.515-7.706-1.515c-2.898,0-5.512,0.506-7.838,1.515c-2.328,1.011-4.326,2.394-5.994,4.149
			c-1.669,1.758-2.986,3.8-3.952,6.125c-0.967,2.328-1.538,4.808-1.713,7.443h39.123
			C203.582,248.218,202.989,245.715,201.981,243.344z"/>
		<path style="fill:#0000FF;" d="M256.317,223.321v9.88h-13.568v42.285c0,1.317,0.109,2.371,0.329,3.161
			c0.218,0.79,0.636,1.406,1.251,1.844c0.614,0.44,1.47,0.724,2.569,0.856c1.097,0.132,2.524,0.198,4.281,0.198h5.137v9.88h-8.562
			c-2.898,0-5.38-0.198-7.443-0.593c-2.064-0.395-3.734-1.12-5.006-2.173c-1.274-1.054-2.219-2.546-2.832-4.479
			c-0.615-1.93-0.922-4.479-0.922-7.64v-43.338H219.96v-9.88h11.592v-20.418h11.197v20.418H256.317z"/>
		<path style="fill:#0000FF;" d="M282.502,197.371v94.053h-11.197v-94.053H282.502z"/>
		<path style="fill:#0000FF;" d="M298.307,243.41c1.404-4.347,3.511-8.122,6.323-11.329c2.81-3.205,6.278-5.73,10.407-7.574
			c4.127-1.844,8.869-2.766,14.226-2.766c5.444,0,10.209,0.922,14.292,2.766c4.084,1.844,7.529,4.37,10.341,7.574
			c2.809,3.207,4.917,6.982,6.323,11.329c1.404,4.347,2.108,9.023,2.108,14.029c0,5.006-0.703,9.661-2.108,13.963
			c-1.406,4.304-3.514,8.058-6.323,11.263c-2.812,3.207-6.257,5.709-10.341,7.509c-4.083,1.799-8.848,2.7-14.292,2.7
			c-5.358,0-10.1-0.901-14.226-2.7c-4.129-1.799-7.597-4.302-10.407-7.509c-2.811-3.205-4.919-6.959-6.323-11.263
			c-1.406-4.302-2.108-8.957-2.108-13.963C296.2,252.433,296.902,247.757,298.307,243.41z M309.702,268.438
			c1.097,3.207,2.612,5.885,4.544,8.035c1.931,2.153,4.193,3.8,6.784,4.94c2.589,1.142,5.335,1.712,8.233,1.712
			c2.898,0,5.642-0.57,8.233-1.712c2.589-1.14,4.851-2.787,6.784-4.94c1.93-2.151,3.445-4.829,4.544-8.035
			c1.098-3.205,1.647-6.87,1.647-10.999c0-4.127-0.549-7.792-1.647-10.999c-1.099-3.205-2.614-5.905-4.544-8.101
			c-1.933-2.194-4.195-3.863-6.784-5.006c-2.591-1.14-5.335-1.712-8.233-1.712c-2.898,0-5.644,0.572-8.233,1.712
			c-2.591,1.142-4.853,2.812-6.784,5.006c-1.933,2.196-3.447,4.897-4.544,8.101c-1.099,3.207-1.647,6.872-1.647,10.999
			C308.055,261.568,308.603,265.233,309.702,268.438z"/>
		<path style="fill:#0000FF;" d="M426.609,310.656c-5.094,5.533-13.086,8.299-23.974,8.299c-3.162,0-6.389-0.352-9.682-1.054
			c-3.293-0.704-6.28-1.844-8.958-3.425c-2.68-1.581-4.897-3.645-6.652-6.191c-1.758-2.548-2.723-5.664-2.898-9.353h11.197
			c0.087,2.019,0.725,3.732,1.91,5.137c1.186,1.404,2.635,2.546,4.347,3.425c1.712,0.877,3.577,1.515,5.598,1.91
			c2.019,0.395,3.952,0.593,5.796,0.593c3.689,0,6.805-0.638,9.353-1.91c2.546-1.274,4.654-3.03,6.323-5.269
			c1.667-2.239,2.875-4.94,3.623-8.101c0.745-3.161,1.119-6.63,1.119-10.406v-4.479h-0.263c-1.933,4.215-4.853,7.311-8.76,9.287
			c-3.909,1.976-8.058,2.964-12.448,2.964c-5.094,0-9.53-0.922-13.305-2.766c-3.777-1.844-6.938-4.324-9.484-7.443
			c-2.548-3.116-4.458-6.761-5.731-10.934c-1.274-4.17-1.91-8.583-1.91-13.239c0-4.038,0.527-8.188,1.581-12.448
			c1.054-4.258,2.809-8.122,5.269-11.592c2.457-3.468,5.708-6.323,9.748-8.562c4.039-2.239,9.001-3.359,14.885-3.359
			c4.302,0,8.254,0.945,11.856,2.832c3.6,1.89,6.409,4.722,8.431,8.496h0.131v-9.748h10.538v62.307
			C434.249,296.78,431.701,305.124,426.609,310.656z M412.317,280.03c2.589-1.535,4.676-3.557,6.257-6.059s2.743-5.335,3.491-8.496
			c0.745-3.162,1.119-6.323,1.119-9.484c0-2.984-0.352-5.928-1.054-8.826c-0.704-2.898-1.823-5.51-3.359-7.838
			c-1.537-2.326-3.536-4.193-5.994-5.598c-2.459-1.404-5.446-2.108-8.958-2.108c-3.602,0-6.675,0.681-9.221,2.042
			c-2.548,1.363-4.633,3.184-6.257,5.467c-1.626,2.285-2.811,4.919-3.557,7.904c-0.747,2.986-1.119,6.105-1.119,9.353
			c0,3.075,0.307,6.148,0.922,9.221c0.613,3.075,1.667,5.862,3.162,8.365c1.492,2.503,3.468,4.524,5.928,6.059
			c2.457,1.538,5.533,2.305,9.221,2.305C406.586,282.335,409.725,281.567,412.317,280.03z"/>
	</g>
</g>
</svg>
