<?xml version="1.0" encoding="utf-8"?>
<!-- Generator: Adobe Illustrator 29.7.1, SVG Export Plug-In . SVG Version: 9.03 Build 0)  -->
<svg version="1.1" id="图层_1" xmlns="http://www.w3.org/2000/svg" xmlns:xlink="http://www.w3.org/1999/xlink" x="0px" y="0px"
	 viewBox="0 0 512 512" style="enable-background:new 0 0 512 512;" xml:space="preserve">
<path style="fill:#F4F1EA;" d="M512,112v288c0,61.86-50.14,112-112,112H112C55.22,512,8.32,469.76,1,414.99
	c-0.66-4.9-1-9.91-1-14.99V112c0-5.08,0.34-10.09,1-14.99C7.66,47.14,47.14,7.66,97.01,1c4.9-0.66,9.91-1,14.99-1h288
	c5.08,0,10.09,0.34,14.99,1C469.76,8.32,512,55.22,512,112z"/>
<g>
	<path style="fill:#0000FF;" d="M512,112v288c0,61.86-50.14,112-112,112H112C55.22,512,8.32,469.76,1,414.99V97.01
		C7.66,47.14,47.14,7.66,97.01,1h317.98C469.76,8.32,512,55.22,512,112z"/>
	<g>
		<path style="fill:#FFFFFF;stroke:#FFFFFF;stroke-width:0.4258;stroke-miterlimit:10;" d="M110.04,238.52
			c-1.65-5.42-4.11-10.2-7.37-14.34s-7.35-7.43-12.27-9.86c-4.91-2.43-10.69-3.65-17.31-3.65c-5.98,0-11.44,1.08-16.42,3.23
			c-4.97,2.16-8.62,5.62-10.93,10.36h-0.33v-11.6H31.32V331h14.09v-44.09h0.33c1.54,2.55,3.45,4.67,5.71,6.38
			c2.27,1.72,4.67,3.07,7.21,4.06c2.54,1,5.11,1.72,7.71,2.16s4.94,0.66,7.04,0.66c6.52,0,12.24-1.16,17.16-3.48
			c4.91-2.32,9-5.49,12.26-9.53c3.26-4.03,5.69-8.76,7.29-14.17c1.61-5.41,2.41-11.16,2.41-17.24
			C112.53,249.68,111.7,243.93,110.04,238.52z M96.28,267.03c-0.88,3.97-2.31,7.51-4.3,10.6c-1.99,3.1-4.62,5.58-7.87,7.46
			c-3.27,1.88-7.32,2.82-12.19,2.82c-4.86,0-9-0.92-12.43-2.74s-6.21-4.22-8.37-7.21c-2.15-2.98-3.73-6.43-4.72-10.35
			c-0.99-3.93-1.49-7.99-1.49-12.19c0-3.97,0.47-7.9,1.41-11.76c0.93-3.87,2.45-7.32,4.55-10.36c2.1-3.04,4.81-5.5,8.12-7.38
			c3.32-1.88,7.35-2.82,12.1-2.82c4.53,0,8.48,0.89,11.85,2.65c3.38,1.78,6.14,4.15,8.29,7.13c2.15,2.98,3.76,6.38,4.81,10.19
			c1.05,3.82,1.57,7.71,1.57,11.69C97.61,258.96,97.17,263.05,96.28,267.03z"/>
		<path style="fill:#FFFFFF;stroke:#FFFFFF;stroke-width:0.4258;stroke-miterlimit:10;" d="M202.11,243.32
			c-1.16-5.74-3.26-11.05-6.3-15.91c-3.04-4.86-7.07-8.86-12.1-12.01c-5.03-3.15-11.35-4.73-18.98-4.73
			c-5.85,0-11.24,1.11-16.16,3.32c-4.91,2.21-9.17,5.3-12.76,9.28c-3.59,3.98-6.38,8.68-8.37,14.09c-1.99,5.41-2.98,11.38-2.98,17.9
			c0.22,6.52,1.19,12.54,2.9,18.06c1.71,5.53,4.28,10.28,7.71,14.26c3.42,3.97,7.65,7.07,12.68,9.28
			c5.02,2.21,10.96,3.31,17.81,3.31c9.73,0,17.79-2.43,24.2-7.29c6.41-4.86,10.55-12.1,12.43-21.71h-13.92
			c-1.22,5.63-3.73,9.83-7.54,12.59c-3.81,2.77-8.7,4.15-14.67,4.15c-4.64,0-8.68-0.78-12.1-2.32c-3.42-1.55-6.24-3.62-8.45-6.22
			c-2.21-2.59-3.81-5.58-4.81-8.95c-0.99-3.37-1.44-6.93-1.33-10.69h64.15C203.74,254.54,203.27,249.07,202.11,243.32z
			 M139.37,247.3c0.23-3.32,0.95-6.43,2.16-9.36c1.22-2.93,2.87-5.5,4.97-7.71c2.1-2.21,4.61-3.95,7.54-5.22s6.22-1.91,9.87-1.91
			c3.53,0,6.76,0.64,9.69,1.91c2.93,1.27,5.47,2.98,7.63,5.14c2.15,2.15,3.86,4.72,5.13,7.7c1.27,2.99,2.02,6.13,2.24,9.45H139.37z"
			/>
		<path style="fill:#FFFFFF;stroke:#FFFFFF;stroke-width:0.4258;stroke-miterlimit:10;" d="M254.73,225.09v-12.43h-17.07v-25.69
			h-14.09v25.69h-14.58v12.43h14.58v54.53c0,3.98,0.38,7.18,1.16,9.61c0.77,2.44,1.96,4.31,3.56,5.64c1.6,1.33,3.7,2.24,6.3,2.73
			c2.59,0.5,5.72,0.75,9.36,0.75h10.78v-12.43h-6.47c-2.21,0-4-0.08-5.38-0.25c-1.39-0.17-2.46-0.52-3.23-1.08
			c-0.78-0.55-1.3-1.32-1.58-2.32c-0.28-0.99-0.41-2.32-0.41-3.98v-53.2H254.73z"/>
		<path style="fill:#FFFFFF;stroke:#FFFFFF;stroke-width:0.4258;stroke-miterlimit:10;" d="M276.67,180.01v118.34h14.09V180.01
			H276.67z"/>
		<path style="fill:#FFFFFF;stroke:#FFFFFF;stroke-width:0.4258;stroke-miterlimit:10;" d="M388.54,237.94
			c-1.77-5.47-4.42-10.22-7.96-14.25c-3.54-4.04-7.87-7.21-13.01-9.53c-5.14-2.33-11.13-3.49-17.98-3.49
			c-6.74,0-12.71,1.16-17.9,3.49c-5.19,2.32-9.56,5.49-13.09,9.53c-3.54,4.03-6.19,8.78-7.96,14.25
			c-1.77,5.47-2.65,11.35-2.65,17.65c0,6.3,0.88,12.15,2.65,17.57c1.77,5.41,4.42,10.13,7.96,14.17c3.53,4.03,7.9,7.18,13.09,9.45
			c5.19,2.26,11.16,3.39,17.9,3.39c6.85,0,12.84-1.13,17.98-3.39c3.32-1.47,6.31-3.3,8.96-5.51c0.91-0.75,1.78-1.55,2.62-2.4
			c0.49-0.5,0.97-1.01,1.43-1.54c3.54-4.04,6.19-8.76,7.96-14.17c1.77-5.42,2.65-11.27,2.65-17.57
			C391.19,249.29,390.31,243.41,388.54,237.94z M364.94,287.96c-1.44,0.44-6.58,0.99-9.15,0.64c-0.02,0-0.04,0-0.06-0.01
			c-0.59-0.09-1.03-0.23-1.26-0.42c-0.25-0.21-0.42-0.42-0.5-0.63c-0.2,0.04-0.4,0.07-0.6,0.09c-0.65,0.1-1.3,0.17-1.96,0.21
			c-0.01,0-0.01,0-0.01,0c-1.23,0.97-3.78,1.13-4.78,0.2c-0.11-0.09-0.2-0.2-0.27-0.33c-0.73-0.09-1.45-0.21-2.16-0.36
			c-0.15,0.4-0.35,0.76-0.63,1.03c-0.6,0.6-1.6,0.78-3.46,0.1c-0.03-0.01-0.05-0.02-0.07-0.03c-1.6-0.62-1.62-1.77-1.22-2.89
			c-0.64-0.29-1.27-0.61-1.87-0.96c-0.06-0.03-0.12-0.07-0.18-0.11c-2.25-1.3-4.27-2.95-6.06-4.95c-2.43-2.71-4.34-6.08-5.72-10.11
			c-1.38-4.03-2.07-8.65-2.07-13.84s0.69-9.81,2.07-13.84s3.29-7.43,5.72-10.2c2.42-2.75,5.27-4.85,8.53-6.29
			c3.26-1.43,6.72-2.16,10.36-2.16c3.65,0,7.1,0.73,10.36,2.16c3.26,1.44,6.1,3.54,8.54,6.29c2.42,2.77,4.33,6.17,5.71,10.2
			s2.07,8.65,2.07,13.84s-0.69,9.81-2.07,13.84c-0.48,1.4-1.02,2.71-1.62,3.95c-0.17,0.34-0.34,0.67-0.51,0.99
			c-0.27,0.51-0.56,1.01-0.86,1.49c-0.11,0.18-0.22,0.36-0.33,0.53c0.2,0.63,0.33,1.39,0.39,2.2c0.03,0.34,0.04,0.7,0.04,1.06
			c0,2.06-0.44,4.22-1.42,5.39c-0.48,0.58-2.67,1.88-4.06,2.55C365.46,287.77,365.15,287.9,364.94,287.96z"/>
		<path style="fill:#FFFFFF;stroke:#FFFFFF;stroke-width:0.4258;stroke-miterlimit:10;" d="M468.42,212.66v12.27h-0.16
			c-2.54-4.75-6.08-8.32-10.61-10.69c-4.53-2.38-9.5-3.57-14.92-3.57c-7.4,0-13.64,1.41-18.72,4.23
			c-5.09,2.82-9.18,6.41-12.27,10.77c-3.09,4.37-5.3,9.23-6.63,14.59c-1.32,5.36-1.99,10.58-1.99,15.66c0,5.86,0.8,11.41,2.4,16.66
			c1.61,5.25,4.01,9.83,7.21,13.75c3.21,3.93,7.19,7.05,11.94,9.37s10.33,3.48,16.74,3.48c5.52,0,10.74-1.25,15.66-3.73
			c4.92-2.49,8.59-6.38,11.02-11.69h0.33v5.64c0,4.75-0.47,9.11-1.41,13.09s-2.46,7.38-4.55,10.19c-2.11,2.82-4.75,5.03-7.96,6.63
			c-3.2,1.61-7.12,2.41-11.77,2.41c-2.32,0-4.75-0.25-7.29-0.75s-4.89-1.3-7.04-2.4c-2.16-1.11-3.98-2.54-5.47-4.31
			s-2.3-3.92-2.4-6.46h-14.09c0.22,4.64,1.43,8.56,3.65,11.76c2.2,3.21,4.99,5.81,8.36,7.79c3.37,1.99,7.13,3.43,11.27,4.31
			c4.15,0.89,8.21,1.33,12.18,1.33c13.71,0,23.76-3.48,30.17-10.44c6.41-6.97,9.61-17.46,9.61-31.49v-78.4H468.42z M466.35,265.7
			c-0.94,3.98-2.4,7.54-4.39,10.69c-1.99,3.15-4.62,5.69-7.87,7.62c-3.27,1.94-7.21,2.9-11.85,2.9s-8.51-0.96-11.6-2.9
			c-3.1-1.93-5.59-4.47-7.46-7.62c-1.88-3.15-3.21-6.66-3.98-10.53c-0.78-3.86-1.16-7.73-1.16-11.6c0-4.08,0.47-8.01,1.41-11.77
			c0.94-3.75,2.43-7.06,4.47-9.94c2.04-2.87,4.67-5.16,7.87-6.88c3.21-1.71,7.07-2.57,11.61-2.57c4.41,0,8.17,0.89,11.27,2.65
			c3.09,1.78,5.6,4.12,7.54,7.05c1.93,2.93,3.34,6.22,4.23,9.86c0.88,3.65,1.32,7.35,1.32,11.11
			C467.76,257.74,467.29,261.72,466.35,265.7z"/>
	</g>
	<g>
		<g>
			<path style="fill:#FFFFFF;stroke:#FFFFFF;stroke-width:0.4258;stroke-miterlimit:10;" d="M374.29,279.68
				c-0.38-0.02-0.68-0.31-0.72-0.68c-0.18-1.95-0.31-3.76-0.99-5.62c-0.06-0.18-0.13-0.37-0.21-0.55c-0.06-0.14-0.17-0.34-0.3-0.59
				c-0.82-1.5-2.85-4.63-3.46-5.24c-0.22-0.22-0.9-0.57-1.48-0.91c-0.48-0.27-0.53-0.95-0.08-1.26c3.38-2.38,3.45-5.39,2.93-9.63
				c-0.61-5.01-3.77-7.97-7.82-10.5c-9.58-5.98-30.5-5.39-34.74,7.02c-0.97,2.85-1.9,7.08,0.27,9.57c0.62,0.71,2.21,1.2,2.52,1.74
				c0.47,0.79,0.08,2.29,0.41,3.43c0.97,3.35,5.35,4.51,5.98,5.51c0.2,0.35,1.46,7.34,1.43,7.9c-0.03,0.88-0.79,1.65-1.09,2.6
				c-0.05,0.13-0.08,0.25-0.1,0.38c-0.1,0.58-0.12,1.13-0.08,1.64c0.16,2.08,1.42,3.46,3.27,3.96c0.87,0.24,1.86,0.27,2.94,0.1
				c0.21-0.03,0.4-0.09,0.59-0.17c0.64-0.27,1.21-0.71,1.95-0.66c0.4,0.03,0.75,0.16,1.11,0.32c0.69,0.3,1.44,0.68,2.76,0.56
				c0.72-0.07,1.41-0.45,2.02-0.76c0,0,0,0,0.01,0c0.5-0.27,0.94-0.48,1.3-0.45c0.2,0.02,0.42,0.11,0.66,0.24
				c0.58,0.3,1.25,0.81,2,0.92c0.11,0.02,0.23,0.03,0.36,0.04c0.02,0.01,0.04,0.01,0.06,0.01c2.25,0.18,7.59-0.38,10.04-1.01
				c0.26-0.07,0.48-0.13,0.67-0.2c1.79-0.65,3.33-2.11,4.8-3.38c0.35-0.29,0.86-0.23,1.12,0.14l0.71,1
				c0.11,0.16,0.17,0.37,0.12,0.56c-0.25,1.14-1.86,1.12-2.18,1.56c-1.61,2.28,2.79,3.03,5.46,1.87c0.91-0.75,1.78-1.55,2.62-2.4
				C380.82,283.65,378.29,279.91,374.29,279.68z M332.12,263.88c-0.03-0.33,0.16-0.65,0.47-0.77c1.6-0.64,4.01-2.22,2.57-3.48
				c-0.32-0.28-0.8-0.24-1.08,0.08c-2.23,2.51-5.65,1.12-5.81-2.43c-0.04-1.04,0.63-3.92,1-5c4.73-14.08,38.47-12.33,39.08,5.4
				c0.08,2.61-0.53,5.5-3.63,5.81c-2.46,0.24-1.91-0.72-2.9-1.61c-0.73-0.66-1.54-0.61-1.61,0.51c-0.12,1.71,2.04,2.72,2.07,2.95
				c0.27,1.86-4.64,5.16-6.29,5.58c-3.66,0.94-12.68,0.65-16.38-0.25C336.27,269.85,332.45,267.64,332.12,263.88z M371.27,278.59
				c-0.13,1.71-0.57,3.35-1.38,4.32c-0.61,0.73-3.94,2.62-4.95,2.92c-1.79,0.54-9.25,1.26-10.47,0.21c-0.25-0.21-0.42-0.42-0.5-0.63
				c-0.57-1.27,1.68-2.29,3.14-2.67c0.36-0.1,0.62-0.45,0.56-0.82c-0.35-2.17-4.04-0.4-4.97,0.81c-0.55,0.71-0.38,1.69-0.79,2.42
				c-0.12,0.21-0.29,0.4-0.5,0.56c-1.36,1.07-4.37,1.16-5.06-0.13c-0.05-0.09-0.09-0.18-0.11-0.28c-0.27-0.87,2.84-4.57,0.16-3.96
				c-1.64,0.38-1.65,2.41-2.21,3.88c-0.48,1.27-1.37,2.13-4.09,1.13c-1.67-0.61-1.7-1.78-1.29-2.92c0.4-1.14,1.24-2.26,1.3-2.78
				c0.1-0.86-0.98-5-1.21-7.1c-0.06-0.55,0.48-0.96,1-0.79c0.86,0.28,1.74,0.43,2.65,0.5c2.98,0.22,10.38,0.39,13.12-0.11
				c3.08-0.57,6.45-3.34,8.23-6.04c0.22-0.33,0.66-0.43,1-0.24c0.76,0.44,1.58,0.89,2.15,1.49c0.42,0.44,3.39,4.78,3.62,5.31
				c0.08,0.18,0.15,0.38,0.21,0.59c0.15,0.48,0.26,1.02,0.33,1.6c0.07,0.53,0.1,1.09,0.1,1.66
				C371.31,277.88,371.3,278.23,371.27,278.59z M376.4,286.77c-0.53,0.5-1.39,0-1.25-0.7c0.21-1.01-0.14-1.97-0.72-2.91
				c-0.37-0.59,0.18-1.3,0.85-1.13c1.22,0.32,2.18,1,2.42,2.54C377.84,285.09,377.19,286.04,376.4,286.77z"/>
			<path style="fill:#FFFFFF;stroke:#FFFFFF;stroke-width:0.4258;stroke-miterlimit:10;" d="M346.502,266.078
				c3.514-0.606,3.647,3.952-0.084,3.338C344.396,269.083,344.284,266.46,346.502,266.078z"/>
			<path style="fill:#FFFFFF;stroke:#FFFFFF;stroke-width:0.4258;stroke-miterlimit:10;" d="M341.852,261.319l-0.065,0.737
				c-0.03,0.337-0.279,0.614-0.612,0.678l-0.695,0.134c-0.396,0.077-0.792-0.169-0.882-0.562c-0.101-0.44-0.099-0.866,0.045-1.304
				c0.096-0.292,0.383-0.481,0.69-0.489l0.743-0.02C341.529,260.482,341.891,260.868,341.852,261.319z"/>
			<path style="fill:#FFFFFF;stroke:#FFFFFF;stroke-width:0.4258;stroke-miterlimit:10;" d="M354.155,263.896
				c-0.422,0.025-0.778-0.328-0.781-0.751c-0.024-3.765,4.162-0.639,1.742,0.514C354.798,263.811,354.48,263.877,354.155,263.896z"
				/>
		</g>
	</g>
</g>
</svg>
